<svg width="75" height="76" viewBox="0 0 75 76" fill="none" xmlns="http://www.w3.org/2000/svg">
<path d="M37.683 5.45147e-05C16.7698 0.0351317 -0.0599637 16.8171 0.000160594 37.5827C0.0602848 58.1279 16.88 75.0151 37.3373 75.0251C42.2825 75.0403 47.1819 74.0783 51.7543 72.1945C56.3267 70.3106 60.482 67.542 63.9815 64.0476C67.4811 60.5531 70.256 56.4017 72.1469 51.8317C74.0378 47.2617 75.0074 42.3632 75.0002 37.4174C74.9701 16.8621 58.1102 -0.0350227 37.683 5.45147e-05ZM37.5628 72.5446C32.954 72.5493 28.3896 71.6454 24.1304 69.8846C19.8711 68.1239 16.0006 65.5409 12.7401 62.2832C9.47962 59.0255 6.89306 55.1571 5.12831 50.899C3.36356 46.641 2.45523 42.0768 2.45523 37.4675C2.45523 18.2001 18.1877 2.39031 37.3323 2.41537C41.9625 2.39285 46.5514 3.28752 50.8342 5.04776C55.1169 6.808 59.0088 9.39896 62.2852 12.6712C65.5616 15.9434 68.1578 19.8321 69.9239 24.1129C71.69 28.3937 72.5911 32.9819 72.5751 37.6128C72.6002 56.79 56.8376 72.5146 37.5628 72.5446Z" fill="#FDFDFD"/>
<path d="M37.3625 4.94585C28.6533 4.96291 20.304 8.42278 14.1349 14.5712C7.96572 20.7195 4.47707 29.0578 4.42949 37.7681C4.3393 55.7626 19.195 70.5702 37.3225 70.5702C55.7906 70.5702 70.6213 56.0383 70.6313 37.9134C70.6328 33.5578 69.7711 29.2451 68.0959 25.2246C66.4208 21.2042 63.9654 17.5557 60.8718 14.4901C57.7782 11.4245 54.1076 9.00254 50.0724 7.36434C46.0372 5.72613 41.7173 4.90413 37.3625 4.94585ZM56.437 47.8152C55.9359 52.5907 52.8646 55.472 48.5507 56.8701C41.0802 59.2904 33.5196 60.1022 26.2596 56.1485C20.6881 53.1419 19.0246 47.0535 22.577 42.8192C24.3256 40.7346 26.5853 39.572 29.3961 39.993C30.4783 40.1583 31.5856 40.5542 31.5505 41.9723C31.5154 43.3904 30.4833 43.5408 29.4362 43.5508C27.5372 43.5508 26.1844 44.4327 25.6082 46.1866C24.9669 48.1309 25.7135 49.7795 27.1865 51.1174C29.4011 53.1218 33.8353 54.4247 38.4498 54.4397C40.8723 54.529 43.2859 54.1002 45.5294 53.182C47.9244 52.1798 50.1189 50.7216 50.3744 47.9505C50.665 44.8386 49.2471 42.273 46.5866 40.5442C42.5783 37.9585 37.9137 37.267 33.4845 35.8939C31.1798 35.1774 28.875 34.4558 26.6153 33.6139C23.3887 32.4113 20.8584 30.3918 20.4927 26.7438C20.1019 22.7851 21.5699 19.4478 25.0772 17.4233C30.7389 14.1561 36.5108 14.2162 42.1474 17.5486C44.3921 18.8715 45.334 21.6777 44.4672 23.8124C43.6806 25.7466 41.2406 26.9292 38.8456 26.5784C37.9738 26.4532 37.2022 26.2327 36.9266 25.2706C36.616 24.1932 37.3726 23.8073 38.1341 23.3964C38.7855 23.0457 39.5671 22.725 39.512 21.8079C39.4519 20.8057 38.6001 20.3948 37.8435 20.1343C34.2862 18.9166 30.794 18.8013 27.6825 21.3169C24.7765 23.667 24.9619 26.9543 28.1134 28.9436C31.2649 30.933 35.0678 31.5444 38.6752 32.4914C42.914 33.6039 47.3231 34.2854 50.9907 37.0014C54.6583 39.7173 56.943 43.1098 56.437 47.8152Z" fill="#FDFDFD"/>
<path d="M68.7023 64.8873C68.3611 64.8807 68.022 64.9417 67.7045 65.0667C67.387 65.1918 67.0974 65.3786 66.8524 65.6161C66.6074 65.8537 66.4119 66.1375 66.277 66.451C66.1422 66.7645 66.0708 67.1017 66.0669 67.4429C66.0675 67.7868 66.1364 68.1271 66.2697 68.4441C66.4029 68.7611 66.5978 69.0484 66.843 69.2894C67.0882 69.5305 67.3788 69.7204 67.698 69.8481C68.0172 69.9759 68.3586 70.0389 68.7023 70.0336C69.0453 70.0397 69.3861 69.977 69.7045 69.8492C70.0229 69.7215 70.3125 69.5313 70.5562 69.2898C70.8 69.0484 70.9929 68.7606 71.1237 68.4434C71.2545 68.1262 71.3205 67.786 71.3177 67.4429C71.3172 67.1024 71.2487 66.7654 71.1163 66.4517C70.9839 66.1379 70.7902 65.8538 70.5467 65.6158C70.3031 65.3778 70.0146 65.1908 69.6979 65.0657C69.3812 64.9406 69.0427 64.88 68.7023 64.8873ZM68.7023 69.4874C68.4357 69.4875 68.1718 69.4343 67.926 69.3311C67.6802 69.2279 67.4575 69.0766 67.2708 68.8863C67.0842 68.6959 66.9374 68.4701 66.8391 68.2223C66.7408 67.9745 66.6929 67.7095 66.6982 67.4429C66.6936 67.1789 66.7411 66.9165 66.8382 66.6709C66.9353 66.4253 67.0799 66.2013 67.2638 66.0117C67.4478 65.8222 67.6673 65.6709 67.9099 65.5665C68.1524 65.4621 68.4132 65.4067 68.6773 65.4034C68.9422 65.4052 69.2039 65.4603 69.4471 65.5654C69.6902 65.6705 69.9097 65.8235 70.0925 66.0152C70.2753 66.2069 70.4176 66.4334 70.5111 66.6813C70.6045 66.9291 70.6471 67.1933 70.6363 67.458C70.6464 67.7179 70.6044 67.9773 70.5129 68.2208C70.4214 68.4644 70.2822 68.6872 70.1035 68.8762C69.9248 69.0652 69.7101 69.2167 69.4721 69.3216C69.234 69.4266 68.9775 69.483 68.7174 69.4874H68.7023Z" fill="#FDFDFD"/>
<path d="M69.2936 67.5232V67.4931C69.435 67.4652 69.5634 67.3918 69.6593 67.2841C69.7552 67.1765 69.8132 67.0405 69.8247 66.8968C69.8272 66.7905 69.806 66.685 69.7627 66.5879C69.7193 66.4909 69.6549 66.4047 69.5742 66.3356C69.3002 66.1912 68.9911 66.1269 68.6823 66.1501C68.3548 66.1437 68.0274 66.1706 67.7053 66.2303V68.7759H68.3216V67.7737H68.6022C68.9278 67.7737 69.1032 67.899 69.1283 68.1796C69.1649 68.3866 69.2307 68.5874 69.3237 68.7759H69.96C69.8649 68.5732 69.8023 68.3567 69.7746 68.1345C69.7578 67.9984 69.7041 67.8695 69.6193 67.7618C69.5345 67.654 69.4219 67.5715 69.2936 67.5232ZM68.5921 67.3327H68.3216V66.6011C68.4287 66.5788 68.5379 66.5687 68.6473 66.5711C69.023 66.5711 69.1934 66.7264 69.1934 66.9619C69.1934 67.1975 68.9178 67.3327 68.5921 67.3327Z" fill="#FDFDFD"/>
</svg>
