<svg width="191" height="52" viewBox="0 0 191 52" fill="none" xmlns="http://www.w3.org/2000/svg">
<path d="M23.7993 18.9782C20.6376 18.1164 17.4343 17.4207 14.2726 16.5537C11.8533 15.9099 9.40287 15.2818 7.43524 13.6049C5.2236 11.7203 5.10939 9.45156 7.05106 7.30741C9.325 4.78428 13.6081 3.94842 17.1332 5.35536C17.9379 5.67724 18.8309 6.00951 19.0333 6.94919C19.2722 8.07577 18.2857 8.40284 17.5226 8.74029C16.6711 9.1089 16.2922 9.66959 16.4842 10.5574C16.6763 11.4451 17.3616 11.767 18.1715 11.9332C20.461 12.4108 23.062 11.2842 23.9498 9.42559C25.2685 6.65845 22.7505 3.77191 22.3923 3.3462C20.5493 1.2332 17.7199 0.672509 16.0793 0.345436C15.1188 0.153346 14.0494 0.0650837 14.0494 0.0650837C13.0025 -0.0216946 11.9502 -0.0216946 10.9032 0.0650837C5.43646 1.04111 1.17413 3.41368 0.00082105 9.41002C-0.0142773 10.6076 0.178963 11.7986 0.571904 12.9299C0.88953 13.8559 1.34077 14.7304 1.91134 15.5258C3.27154 17.3428 5.25475 18.4694 7.5806 19.2482C11.0953 20.437 14.6516 21.4909 18.2338 22.4514C20.9258 23.0919 23.5032 24.1425 25.8759 25.5664C28.3783 27.1654 29.8008 29.5016 29.6554 32.5024C29.5152 35.3941 27.4282 36.9205 25.0141 37.8498C19.485 39.9783 14.013 39.5578 8.71238 36.9983C8.00318 36.669 7.36692 36.2013 6.84093 35.6227C6.31494 35.0441 5.90981 34.3663 5.64932 33.629C5.44387 33.1086 5.36136 32.5478 5.40821 31.9902C5.45506 31.4327 5.63 30.8935 5.9194 30.4147C6.20881 29.9359 6.60485 29.5303 7.0767 29.2297C7.54854 28.929 8.08344 28.7414 8.6397 28.6813C9.15886 28.6087 9.67803 28.6139 10.1972 28.5412C10.5461 28.5084 10.8738 28.3588 11.1273 28.1167C11.3807 27.8746 11.545 27.554 11.5937 27.2069C11.648 26.8623 11.5961 26.5094 11.4449 26.1951C11.2937 25.8807 11.0505 25.6198 10.7475 25.447C10.1687 25.0665 9.49323 24.8593 8.80064 24.8499C5.43646 24.6319 3.23521 26.4074 1.67253 29.1071C-0.108203 32.1545 0.530369 35.1034 2.54991 37.7978C4.2836 40.0963 6.72705 41.7587 9.50151 42.5274C16.1167 44.4813 23.2181 43.9496 29.4685 41.0322C36.7057 37.7563 37.9205 29.3407 32.3135 23.6455C29.9306 21.2314 27.0025 19.8504 23.7993 18.9782Z" fill="#004D9E"/>
<path d="M190.939 37.6682C190.695 36.7337 189.9 36.6298 189.08 36.6662L187.699 36.7492C183.369 36.8323 179.792 35.6123 176.329 33.9769C174.377 33.0528 172.415 32.1235 170.935 30.4726C169.035 28.3596 169.03 26.2933 171.034 24.3309C172.072 23.2925 173.308 22.4826 174.419 21.5274C174.938 21.0965 175.628 20.6863 175.307 19.8453C175.171 19.5228 174.954 19.2413 174.676 19.0291C174.398 18.8168 174.07 18.6811 173.723 18.6356C171.984 18.2982 170.484 18.9056 169.165 19.9855C167.734 21.2432 166.593 22.7967 165.821 24.5385C165.458 25.2809 165.24 26.3919 164.228 26.3556C163.407 26.3245 163.158 25.3173 162.774 24.6579C159.579 19.3279 156.404 13.9874 153.247 8.63657C152.852 7.87333 152.344 7.17341 151.742 6.55992C150.984 5.86424 150.158 5.4541 149.177 5.98883C148.196 6.52357 148.066 7.43211 148.305 8.44448C148.514 9.2823 148.849 10.0838 149.296 10.8222C154.312 19.3884 159.33 27.9546 164.352 36.5208C164.99 37.6469 165.734 38.7091 166.574 39.6929C167.467 40.6949 168.692 41.4736 169.98 40.4613C171.184 39.5216 170.369 38.4521 169.762 37.4916C169.607 37.2837 169.473 37.0612 169.362 36.8271C169.066 36.0951 168.729 35.2073 169.445 34.683C170.053 34.2313 170.722 34.8803 171.283 35.2592C171.932 35.6902 172.576 36.1263 173.188 36.6091C176.859 39.5112 181.116 40.6949 185.716 40.8714C187.279 41.0223 188.845 40.6119 190.134 39.7137C190.468 39.5026 190.726 39.1905 190.871 38.8226C191.016 38.4548 191.039 38.0504 190.939 37.6682Z" fill="#004D9E"/>
<path d="M57.1088 19.4408C56.4598 18.5997 55.598 17.956 54.4195 18.5841C53.241 19.2123 53.2929 20.3181 53.6512 21.2942C54.2357 22.7299 54.8995 24.1321 55.6396 25.4942C56.4235 27.0517 57.1555 28.6092 57.197 30.3743C57.197 30.8935 57.2697 31.4594 56.6779 31.693C56.086 31.9266 55.6915 31.5269 55.3644 31.1219C54.8714 30.5225 54.4087 29.8987 53.9782 29.2529C52.1248 26.4443 50.2974 23.62 48.4439 20.8062C48.0808 20.2207 47.6692 19.6667 47.2135 19.15C46.9331 18.8148 46.5471 18.585 46.1187 18.4982C45.6904 18.4114 45.2453 18.4728 44.8565 18.6724C43.8494 19.1137 43.8182 19.9547 43.974 20.8529C44.1452 21.7021 44.484 22.5087 44.9707 23.2255C45.7391 24.4714 46.5282 25.7019 47.2862 26.9634C47.9755 28.0594 48.5002 29.2506 48.8437 30.4989C48.9891 31.0856 49.1137 31.7813 48.5374 32.1654C47.9611 32.5496 47.39 32.1031 46.9799 31.6463C46.17 30.7481 45.329 29.8759 44.6073 28.9155C42.7332 26.4287 41.2224 23.7238 39.6078 21.0553C39.2494 20.3699 38.8121 19.7287 38.3047 19.1448C37.609 18.4543 36.7005 18.0702 35.7089 18.5582C34.8107 18.9943 34.6394 19.8094 34.629 20.7335C34.6461 21.7737 34.9753 22.7847 35.5739 23.6356C38.9315 28.8665 42.7078 33.8165 46.8657 38.4369C47.5882 39.3013 48.4806 40.0081 49.4875 40.5136C51.2734 41.3494 52.2494 40.8718 52.7167 38.9561C52.7937 38.6138 52.8492 38.267 52.8828 37.9178C52.9555 37.3311 52.8517 36.5835 53.5473 36.3603C54.3417 36.1111 54.7674 36.8327 55.2242 37.3207C55.9866 38.2538 56.8049 39.1397 57.6747 39.9736C59.5125 41.4948 61.1582 40.9185 61.6618 38.5823C61.8227 37.4751 61.9025 36.3577 61.9007 35.2389C61.9183 32.296 61.4661 29.3692 60.5612 26.5689C59.8484 24.0046 58.6788 21.5899 57.1088 19.4408Z" fill="#004D9E"/>
<path d="M131.308 27.9436C127.414 21.1426 123.518 14.3433 119.621 7.5457C119.102 6.62159 118.583 5.72864 117.43 5.83247C115.572 5.90516 114.99 7.3588 116.096 9.31086C121.713 19.1957 127.358 29.0598 133.031 38.9031C133.113 39.055 133.203 39.2023 133.301 39.3444C134.116 40.4606 135.056 41.4211 136.525 40.4866C137.994 39.5521 137.335 38.4567 136.691 37.3716C134.879 34.2307 133.119 31.0794 131.308 27.9436Z" fill="#004D9E"/>
<path d="M102.728 30.2442C101.03 26.5841 98.3874 23.3965 97.3906 19.3833C97.1362 18.345 96.1602 18.0854 95.314 18.3969C94.177 18.8123 93.1283 18.6098 92.0173 18.4592C87.1371 17.7947 84.4635 20.1413 84.3752 25.1149C84.2766 30.9815 87.2306 35.3113 91.5708 38.7897C94.312 40.9909 97.4633 41.7385 100.682 39.6619C102.089 38.7585 102.925 39.2621 103.647 40.451C104.009 41.0387 104.327 41.6531 104.597 42.2888C105.152 43.6439 105.926 45.0975 104.851 46.4421C103.849 47.6985 102.349 47.8231 100.817 47.4805C99.7788 47.2468 98.6729 47.169 98.2472 48.4824C98.1147 48.8246 98.1019 49.2015 98.2109 49.5519C98.4549 50.2632 99.1921 50.5902 99.7113 50.8187C100.902 51.26 102.199 51.327 103.428 51.0108C103.776 50.9433 104.051 50.8498 104.238 50.8083C109.186 49.744 110.956 46.1826 108.558 41.7852C106.485 37.9954 104.541 34.1484 102.728 30.2442ZM98.7249 35.5241C97.6242 36.604 96.3523 36.3911 95.0907 35.8979C91.9083 34.6467 88.6116 29.6057 88.5285 25.6808C88.6271 24.3206 88.9335 22.7839 90.7038 22.1764C92.4741 21.569 93.4606 22.7319 94.2289 24.0558C95.7864 26.7451 97.3439 29.4447 98.8027 32.1807C99.3738 33.245 99.8151 34.4495 98.7249 35.5241Z" fill="#004D9E"/>
<path d="M78.301 22.9081C77.7819 22.0411 77.2108 21.226 77.1433 20.0942C77.0602 18.6977 76.0011 18.137 74.724 18.6146C73.4469 19.0922 72.2113 18.8949 70.9237 18.6457C66.0021 17.6905 62.8975 20.3226 62.8975 25.3949C62.8839 28.7907 63.9713 32.0994 65.9969 34.8251C68.0224 37.5507 70.8768 39.5464 74.1322 40.5129C75.4976 40.9178 76.946 41.1099 78.1401 40.2897C80.0454 38.9762 81.6496 38.3584 83.4927 40.4921C84.2039 41.3176 85.6212 41.1567 86.5817 40.326C87.4591 39.568 87.3241 38.6543 86.7374 37.7665C83.6069 32.9798 81.2447 27.7778 78.301 22.9081ZM75.7052 36.2246C75.5547 36.2246 75.2951 36.1831 75.0407 36.1363C70.8407 35.3628 66.4434 28.0166 67.8191 24.0762C67.9646 23.5744 68.2432 23.1212 68.6252 22.7648C69.0072 22.4084 69.4785 22.1619 69.9892 22.0515C70.4995 21.9154 71.0406 21.9528 71.5273 22.1576C72.0141 22.3625 72.419 22.7232 72.6785 23.1832C74.589 26.3553 76.6501 29.4651 78.0986 32.8864C78.8981 34.7346 77.7975 36.1675 75.726 36.2246H75.7052Z" fill="#004D9E"/>
<path d="M156.788 29.234C155.184 24.7173 152.167 21.4881 147.91 19.266C143.653 17.044 140.159 19.7852 136.421 20.9014C135.637 21.1298 135.139 22.0176 134.864 22.8742C134.402 24.274 134.313 25.7697 134.604 27.2144C135.502 31.6585 138.02 35.0901 141.462 37.8573C143.556 39.5362 146.107 40.5473 148.782 40.7594C155.096 40.8061 158.32 37.0889 157.416 31.7311C157.279 30.8822 157.069 30.0467 156.788 29.234ZM149.063 36.9124C145.6 36.9124 140.481 32.4943 139.827 28.9484C139.744 28.502 139.666 28.0503 139.993 27.744C141.12 26.7056 141.618 25.6154 140.668 24.1098C140.388 23.6634 141 23.2273 141.462 22.9521C142.378 22.45 143.446 22.3021 144.463 22.5368C148.44 23.2221 152.977 28.2216 153.32 32.2918C153.554 35.1109 151.892 36.8812 149.063 36.9124Z" fill="#004D9E"/>
<path d="M126.562 33.0385C125.493 32.5505 124.756 33.0385 124.143 33.9107C123.857 34.3413 123.532 34.7445 123.172 35.1151C121.495 36.7609 118.079 37.0101 116.195 35.6343C114.731 34.596 114.777 33.729 116.345 32.8516C119.933 30.8424 121.044 28.1064 119.87 24.1816C119.253 22.1773 117.893 20.4844 116.07 19.4482C114.246 18.412 112.096 18.1107 110.058 18.6057C106.009 19.6441 103.891 23.19 104.867 27.6548C105.843 32.1196 108.501 35.6291 112.223 38.2405C114.394 39.837 116.996 40.7417 119.689 40.8363C121.163 40.8191 122.62 40.5195 123.982 39.9537C124.917 39.5982 125.747 39.0135 126.396 38.2533C127.046 37.493 127.494 36.5818 127.699 35.6031C127.964 34.5492 127.71 33.5525 126.562 33.0385ZM109.285 25.7702C109.285 23.8181 110.489 22.4579 112.182 22.5358C114.154 22.6293 116.122 25.0434 116.086 27.3277C116.06 29.1292 114.954 30.3025 113.246 30.3285C111.071 30.3492 109.305 28.3141 109.285 25.7546V25.7702Z" fill="#004D9E"/>
<path d="M172.254 27.7006C172.255 28.1341 172.341 28.5631 172.509 28.9628C172.677 29.3624 172.923 29.7247 173.232 30.0285C173.541 30.3324 173.908 30.5717 174.31 30.7327C174.713 30.8937 175.143 30.973 175.577 30.9661C176.01 30.9745 176.44 30.896 176.842 30.7353C177.245 30.5747 177.611 30.3352 177.919 30.0308C178.227 29.7265 178.471 29.3635 178.637 28.9633C178.803 28.5631 178.886 28.1337 178.884 27.7006C178.882 27.2703 178.795 26.8446 178.628 26.4483C178.46 26.052 178.215 25.693 177.907 25.3924C177.599 25.0918 177.235 24.8555 176.835 24.6974C176.434 24.5393 176.007 24.4624 175.577 24.4714C175.146 24.4638 174.718 24.5415 174.318 24.7C173.917 24.8584 173.552 25.0945 173.243 25.3947C172.935 25.6948 172.688 26.053 172.518 26.4488C172.348 26.8445 172.259 27.27 172.254 27.7006ZM175.577 25.1048C175.911 25.1073 176.242 25.1771 176.55 25.3099C176.857 25.4427 177.135 25.6358 177.366 25.8779C177.598 26.1199 177.778 26.406 177.897 26.7191C178.016 27.0322 178.071 27.3659 178.058 27.7006C178.07 28.0316 178.015 28.3616 177.897 28.671C177.779 28.9804 177.599 29.2629 177.37 29.5016C177.14 29.7404 176.865 29.9306 176.561 30.0609C176.256 30.1911 175.929 30.2589 175.597 30.2601C175.259 30.2631 174.924 30.1975 174.612 30.0671C174.3 29.9368 174.018 29.7444 173.782 29.5017C173.547 29.2589 173.363 28.9709 173.242 28.6551C173.121 28.3392 173.066 28.0022 173.079 27.6643C173.075 27.3328 173.136 27.0037 173.259 26.6959C173.382 26.3881 173.565 26.1079 173.797 25.8713C174.029 25.6347 174.306 25.4465 174.612 25.3176C174.917 25.1887 175.245 25.1217 175.577 25.1204V25.1048Z" fill="#004D9E"/>
<path d="M175.068 28.0962H175.421C175.831 28.0962 176.028 28.2519 176.091 28.6153C176.136 28.8895 176.222 29.1555 176.345 29.4045H177.15C177.028 29.1509 176.949 28.879 176.916 28.5997C176.899 28.4266 176.835 28.2615 176.731 28.1224C176.626 27.9832 176.486 27.8754 176.324 27.8106V27.7691C176.503 27.7362 176.666 27.645 176.787 27.5097C176.908 27.3744 176.981 27.2027 176.994 27.0215C176.999 26.8874 176.972 26.7541 176.918 26.6317C176.863 26.5093 176.78 26.4011 176.677 26.3154C176.335 26.129 175.944 26.0477 175.556 26.0818C175.142 26.0748 174.728 26.1061 174.32 26.1753V29.4045H175.068V28.0962ZM175.068 26.6373C175.203 26.6116 175.34 26.5995 175.478 26.601C175.95 26.601 176.168 26.7983 176.168 27.089C176.168 27.3797 175.831 27.5614 175.421 27.5614H175.068V26.6373Z" fill="#004D9E"/>
</svg>
