<?xml version="1.0" encoding="utf-8"?>
<!-- Generator: Adobe Illustrator 25.4.1, SVG Export Plug-In . SVG Version: 6.00 Build 0)  -->
<svg version="1.1" id="Слой_1" xmlns="http://www.w3.org/2000/svg" xmlns:xlink="http://www.w3.org/1999/xlink" x="0px" y="0px"
	 viewBox="0 0 66.3 52" style="enable-background:new 0 0 66.3 52;" xml:space="preserve">
<style type="text/css">
	.st0{fill:#004D9E;}
</style>
<path class="st0" d="M23.8,19c-3.2-0.9-6.4-1.6-9.5-2.4c-2.4-0.6-4.9-1.3-6.8-2.9c-2.2-1.9-2.3-4.2-0.4-6.3c2.3-2.5,6.6-3.4,10.1-2
	C17.9,5.7,18.8,6,19,6.9c0.2,1.1-0.7,1.5-1.5,1.8c-0.9,0.4-1.2,0.9-1,1.8c0.2,0.9,0.9,1.2,1.7,1.4c2.3,0.5,4.9-0.6,5.8-2.5
	c1.3-2.8-1.2-5.7-1.6-6.1c-1.8-2.1-4.7-2.7-6.3-3c-1-0.2-2-0.3-2-0.3C13,0,12,0,10.9,0.1C5.4,1,1.2,3.4,0,9.4c0,1.2,0.2,2.4,0.6,3.5
	c0.3,0.9,0.8,1.8,1.3,2.6c1.4,1.8,3.3,2.9,5.7,3.7c3.5,1.2,7.1,2.2,10.7,3.2c2.7,0.6,5.3,1.7,7.6,3.1c2.5,1.6,3.9,3.9,3.8,6.9
	c-0.1,2.9-2.2,4.4-4.6,5.3C19.5,40,14,39.6,8.7,37c-0.7-0.3-1.3-0.8-1.9-1.4c-0.5-0.6-0.9-1.3-1.2-2c-0.2-0.5-0.3-1.1-0.2-1.6
	c0-0.6,0.2-1.1,0.5-1.6c0.3-0.5,0.7-0.9,1.2-1.2c0.5-0.3,1-0.5,1.6-0.5c0.5-0.1,1-0.1,1.6-0.1c0.3,0,0.7-0.2,0.9-0.4
	c0.3-0.2,0.4-0.6,0.5-0.9c0.1-0.3,0-0.7-0.1-1c-0.2-0.3-0.4-0.6-0.7-0.7c-0.6-0.4-1.3-0.6-1.9-0.6c-3.4-0.2-5.6,1.6-7.1,4.3
	c-1.8,3-1.1,6,0.9,8.7c1.7,2.3,4.2,4,7,4.7c6.6,2,13.7,1.4,20-1.5c7.2-3.3,8.5-11.7,2.8-17.4C29.9,21.2,27,19.9,23.8,19z"/>
<path class="st0" d="M57.1,19.4c-0.6-0.8-1.5-1.5-2.7-0.9c-1.2,0.6-1.1,1.7-0.8,2.7c0.6,1.4,1.2,2.8,2,4.2c0.8,1.6,1.5,3.1,1.6,4.9
	c0,0.5,0.1,1.1-0.5,1.3c-0.6,0.2-1-0.2-1.3-0.6c-0.5-0.6-1-1.2-1.4-1.9c-1.9-2.8-3.7-5.6-5.5-8.4c-0.4-0.6-0.8-1.1-1.2-1.7
	c-0.3-0.3-0.7-0.6-1.1-0.7c-0.4-0.1-0.9,0-1.3,0.2c-1,0.4-1,1.3-0.9,2.2c0.2,0.8,0.5,1.7,1,2.4c0.8,1.2,1.6,2.5,2.3,3.7
	c0.7,1.1,1.2,2.3,1.6,3.5c0.1,0.6,0.3,1.3-0.3,1.7c-0.6,0.4-1.1-0.1-1.6-0.5c-0.8-0.9-1.7-1.8-2.4-2.7c-1.9-2.5-3.4-5.2-5-7.9
	c-0.4-0.7-0.8-1.3-1.3-1.9c-0.7-0.7-1.6-1.1-2.6-0.6c-0.9,0.4-1.1,1.3-1.1,2.2c0,1,0.3,2.1,0.9,2.9c3.4,5.2,7.1,10.2,11.3,14.8
	c0.7,0.9,1.6,1.6,2.6,2.1c1.8,0.8,2.8,0.4,3.2-1.6c0.1-0.3,0.1-0.7,0.2-1c0.1-0.6,0-1.3,0.7-1.6c0.8-0.2,1.2,0.5,1.7,1
	c0.8,0.9,1.6,1.8,2.5,2.7c1.8,1.5,3.5,0.9,4-1.4c0.2-1.1,0.2-2.2,0.2-3.3c0-2.9-0.4-5.9-1.3-8.7C59.8,24,58.7,21.6,57.1,19.4z"/>
</svg>
