<svg width="36" height="44" viewBox="0 0 36 44" fill="none" xmlns="http://www.w3.org/2000/svg">
<path d="M23.7993 18.9782C20.6376 18.1164 17.4343 17.4207 14.2726 16.5537C11.8533 15.9099 9.40287 15.2818 7.43524 13.6049C5.2236 11.7203 5.10939 9.45156 7.05106 7.30741C9.325 4.78428 13.6081 3.94842 17.1332 5.35536C17.9379 5.67724 18.8309 6.00951 19.0333 6.94919C19.2722 8.07577 18.2857 8.40284 17.5226 8.74029C16.6711 9.1089 16.2922 9.66959 16.4842 10.5574C16.6763 11.4451 17.3616 11.767 18.1715 11.9332C20.461 12.4108 23.062 11.2842 23.9498 9.42559C25.2685 6.65845 22.7505 3.77191 22.3923 3.3462C20.5493 1.2332 17.7199 0.672509 16.0793 0.345436C15.1188 0.153346 14.0494 0.0650837 14.0494 0.0650837C13.0025 -0.0216946 11.9502 -0.0216946 10.9032 0.0650837C5.43646 1.04111 1.17413 3.41368 0.00082105 9.41002C-0.0142773 10.6076 0.178963 11.7986 0.571904 12.9299C0.88953 13.8559 1.34077 14.7304 1.91134 15.5258C3.27154 17.3428 5.25475 18.4694 7.5806 19.2482C11.0953 20.437 14.6516 21.4909 18.2338 22.4514C20.9258 23.0919 23.5032 24.1425 25.8759 25.5664C28.3783 27.1654 29.8008 29.5016 29.6554 32.5024C29.5152 35.3941 27.4282 36.9205 25.0141 37.8498C19.485 39.9783 14.013 39.5578 8.71238 36.9983C8.00318 36.669 7.36692 36.2013 6.84093 35.6227C6.31494 35.0441 5.90981 34.3663 5.64932 33.629C5.44387 33.1086 5.36136 32.5478 5.40821 31.9902C5.45506 31.4327 5.63 30.8935 5.9194 30.4147C6.20881 29.9359 6.60485 29.5303 7.0767 29.2297C7.54854 28.929 8.08344 28.7414 8.6397 28.6813C9.15886 28.6087 9.67803 28.6139 10.1972 28.5412C10.5461 28.5084 10.8738 28.3588 11.1273 28.1167C11.3807 27.8746 11.545 27.554 11.5937 27.2069C11.648 26.8623 11.5961 26.5094 11.4449 26.1951C11.2937 25.8807 11.0505 25.6198 10.7475 25.447C10.1687 25.0665 9.49323 24.8593 8.80064 24.8499C5.43646 24.6319 3.23521 26.4074 1.67253 29.1071C-0.108203 32.1545 0.530369 35.1034 2.54991 37.7978C4.2836 40.0963 6.72705 41.7587 9.50151 42.5274C16.1167 44.4813 23.2181 43.9496 29.4685 41.0322C36.7057 37.7563 37.9205 29.3407 32.3135 23.6455C29.9306 21.2314 27.0025 19.8504 23.7993 18.9782Z" fill="#004D9E"/>
</svg>
